PathFileType	4	(X/Y/Z)	Patient4_TMGait_0pt5_02_left_32.trc.trc
DataRate	CameraRate	NumFrames	NumMarkers	Units	OrigDataRate	OrigDataStartFrame	OrigNumFrames
73.298429319372	73.298429319372	4	33	mm	73.298429319372	1	       141
Frame#	Time	Sacral			L.Shoulder			Chest			R.Shoulder			Neck			R.ASIS			L.ASIS			R.Thigh.Superior			R.Thigh.Lateral			R.Thigh.Inferior			R.Patella			L.Thigh.Superior			L.Thigh.Lateral			L.Thigh.Inferior			L.Patella			L.Shank.Superior			L.Shank.Lateral			L.Shank.Inferior			R.Shank.Superior			R.Shank.Lateral			R.Shank.Inferior			R.Heel			R.Midfoot.Superior			R.Midfoot.Lateral			R.Toe			L.Heel			L.Midfoot.Lateral			L.Midfoot.Superior			L.Toe			L.Elbow			L.Wrist			R.Elbow			R.Wrist			
		X1	Y1	Z1	X2	Y2	Z2	X3	Y3	Z3	X4	Y4	Z4	X5	Y5	Z5	X6	Y6	Z6	X7	Y7	Z7	X8	Y8	Z8	X9	Y9	Z9	X10	Y10	Z10	X11	Y11	Z11	X12	Y12	Z12	X13	Y13	Z13	X14	Y14	Z14	X15	Y15	Z15	X16	Y16	Z16	X17	Y17	Z17	X18	Y18	Z18	X19	Y19	Z19	X20	Y20	Z20	X21	Y21	Z21	X22	Y22	Z22	X23	Y23	Z23	X24	Y24	Z24	X25	Y25	Z25	X26	Y26	Z26	X27	Y27	Z27	X28	Y28	Z28	X29	Y29	Z29	X30	Y30	Z30	X31	Y31	Z31	X32	Y32	Z32	X33	Y33	Z33	

1	41.130000000000	692.655700131665	1006.672587179903	501.683176633093	866.664797738386	1423.494971695691	301.345829004305	970.586538514668	1363.104008959795	465.857181696188	886.167648095217	1444.364905266041	636.948592210315	867.489251845631	1492.224957453344	449.465963815980	921.211849124509	938.479667489977	614.696358705231	902.003571609538	958.994154113769	341.773409902489	965.728578044951	738.856812912685	580.273447137595	884.828761507566	629.284263625048	637.344335510947	961.014674621744	578.134519962231	554.580123543185	961.426890776500	486.131991432102	557.859276376040	968.907533890106	761.414958580795	368.219309176936	911.522928077172	640.348591196349	292.663630883940	1006.279381673522	566.414485402218	355.459209579026	1008.132427793708	474.949881138436	348.126523030809	933.384734599552	416.137665296156	340.527570134013	788.373088823816	392.127203753071	288.497713958468	757.258539785985	266.495970806319	345.117106135111	926.129582482920	399.289515208190	564.189933436848	849.918348009620	299.680304369509	625.558441862932	882.919584719146	203.460777643778	560.415146282477	738.300800080351	43.816386519812	530.809624903302	909.702792714559	96.632862471503	567.165929024138	820.801103533558	36.887397596955	606.639496698566	1029.333927148282	41.322430098055	598.170213646965	561.906071136763	243.182403238534	379.298795467624	605.865918788841	176.118264027678	305.578126741851	710.062273439857	160.532572512032	327.229432088959	757.695066019105	30.096174525875	313.749327033118	822.591158285923	1063.669253071068	207.030039028032	858.338316330046	807.342251816199	200.145015629712	855.427706370474	1119.918071592077	795.803428957362	1061.059328351083	972.249304700397	746.853766102568	
2	41.143642857143	691.552856269852	1007.703769130582	503.560503898894	865.418097203821	1424.155558282204	302.643797752158	970.766534319970	1363.076949119496	465.959163784256	888.578960290482	1444.586511710249	637.952973881411	868.073726180863	1492.569717846872	450.716446155337	920.545485220576	938.458739163781	615.176150189713	899.912348358176	959.603171798765	342.371626909806	963.080510138851	738.036249576258	580.666145189683	881.058684710768	629.213037073936	637.780132221970	956.379113193526	577.411474381221	554.698047258519	955.820666283943	485.564123169325	557.789791004385	970.370207979712	766.258455829568	370.281012180938	917.004718353719	644.269287133844	293.744850746778	1013.411834703492	572.838720353459	356.955271589016	1017.951293915863	481.316167146951	349.555132292217	944.574715240684	420.741954547105	341.759775062900	799.962954475786	393.471205160849	290.294663580103	772.296401057212	266.845909492936	346.364737457157	920.236307766360	398.890997941380	564.292923602465	843.617010014353	299.630682069140	625.694978076662	876.205263328552	203.289858068037	560.457722685246	731.035564260314	43.799342244088	530.904987477746	902.454346964312	96.626818831693	567.285905315505	813.493609380172	36.874590709514	606.706949486273	1022.036386596406	41.289899413163	598.295124441960	577.430015869582	237.376711806484	381.301242222272	623.273439722877	172.575140885488	306.719459011213	727.987285558184	160.430310316427	327.873041021744	779.979849700158	31.858434009444	312.844926629105	813.132987961947	1065.430256913688	209.799123458926	843.934977798439	808.460641115023	205.528206688435	867.377313921945	1120.189940076064	797.224413071781	1078.747674838276	987.718934633205	742.367917226043	
3	41.157285714286	690.466089673563	1008.751186719774	505.436391386547	864.165582051862	1424.826181226485	303.927590965985	970.956717025205	1363.054015745896	466.023689502621	891.033444860815	1444.822632968842	638.922559985650	868.666000527308	1492.923387816091	451.943543802635	919.876921874903	938.432822757229	615.612182723425	897.791816219132	960.240364362746	342.940235558408	960.394032575987	737.216741716742	580.992013198697	877.274524590657	629.161877693231	638.193826735488	951.701588737419	576.699101925324	554.785113321139	950.167228999292	485.016062839243	557.700962888825	971.710448262554	771.083899770487	372.272269091475	922.267871660959	648.179500889080	294.805231587929	1020.293856336649	579.221306588592	358.377545320331	1027.479708152926	487.683648260621	350.896679073627	955.607146431497	425.306847681981	342.919455656811	811.473164159572	394.425992063138	292.064448628187	787.621570366656	266.792557788568	347.556017787727	914.316793106902	398.517271013495	564.386285938589	837.313492188655	299.588577614745	625.830135125102	869.496959898634	203.132392760807	560.502212360871	723.803052803898	43.784123059225	531.001508803413	895.235729998957	96.619599984801	567.404442211712	806.220535385792	36.863838789109	606.774496313265	1014.769520297392	41.255889277784	598.416655468010	593.457728018290	230.696618671597	383.324806948800	641.232870283132	168.312933919444	307.834508731846	746.451639453821	159.863446567459	328.444036992589	803.059130073849	33.366687173768	311.773442565962	803.735374222609	1067.231088164001	212.581191355740	829.715169151703	809.649246255591	210.843408510100	879.302266027541	1120.491202723552	798.504124075476	1096.139235596948	1003.181670261484	737.776624498164	
4	41.170928571429	689.413697462756	1009.815522374793	507.295603081343	862.914291055860	1425.500568000561	305.171332538216	971.166546191029	1363.027365337223	466.012503779016	893.555669368504	1445.072455102259	639.813515942927	869.273278092496	1493.280910104866	453.113172905839	919.209827352577	938.391249336476	615.959927713372	895.636408822621	960.914220220039	343.442934743583	957.653936206456	736.399961546217	581.196600160537	873.486800143941	629.139593098025	638.567632515362	946.973203217689	576.003930446649	554.818714586965	944.461890921882	484.501108269974	557.582599070447	972.797901206000	775.799525749483	374.115440662363	927.061144478000	652.002609706390	295.812769409718	1026.608155415200	585.423443641981	359.678435033442	1036.358700568281	493.979856909104	352.102553968048	966.243299000495	429.761762135625	343.965906444646	822.837733978404	394.667441639267	293.733877948653	803.417022326737	266.069451952612	348.645875157840	908.378402520715	398.183115867600	564.463139321279	831.036375910628	299.556638682876	625.963306514133	862.830258712592	202.993968229856	560.549742589842	716.649184249276	43.773972103526	531.094459375230	888.094401080531	96.609514896471	567.517845516491	799.033955354431	36.856533283613	606.842662960759	1007.583437613918	41.219750643049	598.530505154876	610.429611715992	222.549830579761	385.300292949755	660.235597194805	162.878685083227	308.871766800420	765.856018556892	158.566743724630	328.911630768314	827.489625457440	34.585838234839	310.527899874469	794.533241540377	1069.076254521454	215.364837787445	815.939127512702	810.941514609813	215.998801599683	891.136402424078	1120.839404938982	799.493734352960	1112.877425059977	1018.517399054886	732.989710725319	
